<svg version="1.1" xmlns="http://www.w3.org/2000/svg" viewBox="0 0 597.54296875 463.26171875" width="1195.0859375" height="926.5234375">
  <!-- svg-source:excalidraw -->
  
  <defs>
    <style>
      @font-face {
        font-family: "Virgil";
        src: url("https://excalidraw.com/Virgil.woff2");
      }
      @font-face {
        font-family: "Cascadia";
        src: url("https://excalidraw.com/Cascadia.woff2");
      }
    </style>
  </defs>
  <g stroke-linecap="round" transform="translate(160.96484375 187.873046875) rotate(0 65 28.900390625)"><path d="M-0.74 -1.6 C42.81 -1.28, 83.9 -2.18, 128.33 -0.26 M0.38 0.39 C46.31 -0.26, 93.79 -0.32, 129.81 -0.43 M129.73 -0.31 C128.46 20.63, 130.75 43.66, 128.04 56.11 M130.41 -0.54 C129.53 16.41, 130.72 33.23, 130.84 58.01 M128.33 56.91 C78.94 56.65, 30.27 59.61, 1.86 59.51 M130.03 58.76 C87.03 57.77, 44.45 57.55, -0.51 58.8 M-1.9 58.39 C-0.55 34.92, 0.66 13.83, -1.76 1.81 M-0.36 56.83 C-1.39 44.43, 0.37 32.98, -0.4 0.23" stroke="#000" stroke-width="2" fill="none"></path></g><g transform="translate(165.96484375 204.2734375) rotate(0 60 12.5)"><text x="60" y="18" font-family="Virgil, Segoe UI Emoji" font-size="20px" fill="#000" text-anchor="middle" style="white-space: pre;" direction="ltr">Screen</text></g><g stroke-linecap="round" transform="translate(162.52734375 280.384765625) rotate(0 65 31)"><path d="M0.36 -0.94 C27.19 2.38, 60.19 2.26, 131.64 0.31 M-0.38 -0.73 C34.77 0.43, 70.71 0.82, 130.23 0 M128.61 0.79 C128.05 15.09, 128.65 26.91, 130.52 60.24 M129.88 0.23 C129.48 20.92, 130.15 41.78, 129.09 61.97 M129.57 60.46 C94.76 64.09, 55.99 61.73, -0.22 63.75 M129.82 61.99 C79.95 63.73, 27.81 63.46, -0.44 62.68 M-1.68 60.65 C1 47.75, -0.44 36.34, 1.66 -1.61 M0.19 61.55 C-0.96 48.73, -0.92 35.31, 0.94 0.27" stroke="#000" stroke-width="2" fill="none"></path></g><g transform="translate(167.52734375 298.884765625) rotate(0 60 12.5)"><text x="60" y="18" font-family="Virgil, Segoe UI Emoji" font-size="20px" fill="#000" text-anchor="middle" style="white-space: pre;" direction="ltr">Vertical</text></g><g stroke-linecap="round" transform="translate(10 389.81640625) rotate(0 65 31)"><path d="M-1.87 0.25 C32.46 0.27, 65.47 -0.71, 130.94 -1.49 M0.48 -0.23 C34.17 1, 69.58 1.23, 129.35 0.57 M130.85 0.7 C131.3 14.19, 131.61 30.44, 130.92 61.37 M130.33 0.21 C128.66 17.18, 129.42 33.67, 130.55 61.01 M128.48 61.19 C94.89 60.78, 59.17 62.54, 1.38 63.72 M130.51 61.29 C100.29 60.38, 71.41 60.55, 0.93 61.05 M-0.82 63.12 C0.78 41.71, -0.6 27.13, -1.16 -1.03 M-0.13 61.64 C-0.08 37.74, -0.41 13.26, -0.17 0.95" stroke="#000" stroke-width="2" fill="none"></path></g><g transform="translate(15 408.31640625) rotate(0 60 12.5)"><text x="60" y="18" font-family="Virgil, Segoe UI Emoji" font-size="20px" fill="#000" text-anchor="middle" style="white-space: pre;" direction="ltr">Widget</text></g><g stroke-linecap="round" transform="translate(167.08203125 388.95703125) rotate(0 65 31)"><path d="M1.3 0.41 C42.44 -1.87, 86.81 -0.49, 129.02 -1.98 M0.3 -0.13 C30.9 0.99, 61.53 0.59, 129.9 0.68 M128.37 0.32 C129.36 22.53, 131.3 41.66, 130.54 60.56 M130.3 0.37 C130.06 13.81, 129.25 27.96, 130.42 61.23 M131.56 62.85 C95.53 62.89, 59.39 62.55, 1.7 60.19 M129.95 62.39 C81.67 62.29, 33.99 63.57, -0.43 61.95 M0.43 60.22 C-1.31 42.02, 0.37 23.91, -0.39 0.95 M0.38 61.49 C-0.84 47.42, 0.3 34.25, -0.17 -0.44" stroke="#000" stroke-width="2" fill="none"></path></g><g transform="translate(172.08203125 407.45703125) rotate(0 60 12.5)"><text x="60" y="18" font-family="Virgil, Segoe UI Emoji" font-size="20px" fill="#000" text-anchor="middle" style="white-space: pre;" direction="ltr">Widget</text></g><g stroke-linecap="round" transform="translate(327.0625 391.26171875) rotate(0 65 31)"><path d="M0.51 -0.98 C33.19 -1.81, 69.79 -2.22, 130.59 -0.26 M-0.53 -0.1 C45.75 -0.39, 89.96 -0.85, 129.19 0.16 M128.35 0.54 C128.83 15.42, 128.49 33.16, 130.59 62.73 M130.47 0.42 C129.27 22.08, 129.58 45.13, 130.78 62.42 M130.13 63.7 C86.38 62.93, 44.85 62.38, -0.09 62.79 M130.98 61.57 C89.14 63.43, 48.44 63.08, 0.22 61.11 M1.88 61.61 C0.94 45.89, 0.3 33.56, 0.76 -1.03 M0.53 61.83 C-0.17 47.82, 1.07 33.63, 0.04 -0.64" stroke="#000" stroke-width="2" fill="none"></path></g><g transform="translate(332.0625 409.76171875) rotate(0 60 12.5)"><text x="60" y="18" font-family="Virgil, Segoe UI Emoji" font-size="20px" fill="#000" text-anchor="middle" style="white-space: pre;" direction="ltr">Widget</text></g><g stroke-linecap="round"><g transform="translate(228.1885171593717 343.7890625) rotate(0 -82.882554315758 23.85795395953579)"><path d="M-0.48 -0.12 C-26.22 2.6, -130.25 7.57, -155.58 15.75 C-180.9 23.93, -152.86 43.6, -152.43 48.95 M1.47 -1.23 C-24.32 1.66, -130.81 8.76, -156.54 16.83 C-182.28 24.9, -153.57 41.83, -152.95 47.19" stroke="#000" stroke-width="2" fill="none"></path></g><g transform="translate(228.1885171593717 343.7890625) rotate(0 -82.882554315758 23.85795395953579)"><path d="M-151.36 45.53 L-166.63 38.9 L-155.93 33.11 L-152.15 46.04" stroke="none" stroke-width="0" fill="#000" fill-rule="evenodd"></path><path d="M-153.1 47.15 C-156.73 46.37, -156.98 44.3, -166.38 40.9 M-153.21 46.77 C-155.93 45.98, -158.47 44.11, -167.07 40.61 M-165.65 39.86 C-164.28 37.41, -160.34 36.34, -155.91 33.79 M-165.91 40.47 C-162.88 37.02, -158.7 34.73, -156.76 32.64 M-156.05 32.39 C-156.71 37.4, -155.08 40.82, -152.55 46.33 M-157.07 31.98 C-154.49 38.23, -154.39 43.2, -152.21 47.41 M-152.95 47.19 C-152.95 47.19, -152.95 47.19, -152.95 47.19 M-152.95 47.19 C-152.95 47.19, -152.95 47.19, -152.95 47.19" stroke="#000" stroke-width="2" fill="none"></path></g></g><g stroke-linecap="round"><g transform="translate(229.78191064354996 345.4140625) rotate(0 1.645630654216518 20.658970087859757)"><path d="M0.73 0.87 C1.28 7.71, 2.99 33.09, 3.63 39.92 M-0.34 0.28 C-0.01 7.35, 1.74 34.41, 2.48 41.04" stroke="#000" stroke-width="1" fill="none"></path></g><g transform="translate(229.78191064354996 345.4140625) rotate(0 1.645630654216518 20.658970087859757)"><path d="M2.61 39.36 L-6.4 26.32 L9 28.85 L4.18 40.99" stroke="none" stroke-width="0" fill="#000" fill-rule="evenodd"></path><path d="M3.56 40.56 C-0.84 37.5, -0.9 31.35, -6.06 28.24 M2.58 41.57 C-0.03 37.85, -2.26 33.75, -4.81 28.54 M-4.61 28.99 C-0.77 28.01, 5.23 28.15, 8.42 28.15 M-5.36 28.26 C-1.78 28.38, 1.43 27.44, 7.03 27.5 M7.07 26.13 C7.22 32.05, 4.12 36.39, 3.36 41.33 M8 27.45 C6.06 31.37, 4.4 35.52, 3.11 41.1 M2.48 41.04 C2.48 41.04, 2.48 41.04, 2.48 41.04 M2.48 41.04 C2.48 41.04, 2.48 41.04, 2.48 41.04" stroke="#000" stroke-width="1" fill="none"></path></g></g><g stroke-linecap="round"><g transform="translate(235.68359375 341.87109375) rotate(0 83.2799654830385 23.608543136809033)"><path d="M1.01 0.1 C26.94 2.5, 129.49 7, 155.18 14.84 C180.88 22.68, 154.99 41.51, 155.17 47.12 M0.08 -0.89 C25.94 1.08, 128.86 4.67, 154.57 12.84 C180.29 21, 154.56 42.53, 154.36 48.11" stroke="#000" stroke-width="2" fill="none"></path></g><g transform="translate(235.68359375 341.87109375) rotate(0 83.2799654830385 23.608543136809033)"><path d="M154.21 47.53 L154.23 31.56 L168.4 40.64 L155.82 49.69" stroke="none" stroke-width="0" fill="#000" fill-rule="evenodd"></path><path d="M154.49 48.91 C154.96 44, 154.26 41.39, 156.69 32.32 M154.59 47.7 C153.95 44.71, 154.24 42.09, 155.56 33.35 M155.22 33.25 C157.33 33.75, 160.02 37.08, 167.9 40.65 M155.51 32.98 C159.01 35.02, 162.82 36.6, 166.88 39.85 M165.28 38.39 C163.33 40.74, 159.84 43.97, 154.72 48.75 M166.82 39.64 C162.86 42.49, 158.84 44.51, 155.01 48.66 M154.36 48.11 C154.36 48.11, 154.36 48.11, 154.36 48.11 M154.36 48.11 C154.36 48.11, 154.36 48.11, 154.36 48.11" stroke="#000" stroke-width="2" fill="none"></path></g></g><g stroke-linecap="round" transform="translate(163.265625 100.615234375) rotate(0 65 28.900390625)"><path d="M0 0 C0 0, 0 0, 0 0 M0 0 C0 0, 0 0, 0 0 M-0.31 13.04 C2.89 6.92, 7.7 3.31, 9.83 -1.19 M0.82 12.79 C3.17 8.37, 6.69 3.77, 10.27 -0.82 M-0.39 24.57 C4.7 16.65, 11.58 11.03, 19.53 -0.34 M-0.16 24.59 C3.75 19.08, 9.89 12.77, 21.27 0.28 M0.38 38.19 C11.41 23.92, 23.73 7.89, 31.51 -0.2 M-0.55 36.25 C10.29 22.51, 22.21 10.36, 31.42 -0.86 M0.92 47.07 C10.91 34.02, 23.21 22.69, 40.89 -0.89 M0 48.76 C11.97 33.62, 26.06 19.68, 43.03 -0.52 M3.13 57.45 C15.99 43.95, 32.3 25.72, 53.76 -0.02 M1.71 59.79 C12.43 45.96, 22.73 34.4, 53 -1.05 M10.4 58 C25.95 46.94, 34.99 33.97, 63.83 -0.77 M12.76 60.11 C25.36 44.15, 39.59 26.88, 63.86 -0.67 M24.18 59.93 C38.86 37.29, 59.53 19.46, 75.26 -1.73 M22.16 60.04 C38.27 40.05, 54.42 22.8, 73.85 -0.11 M33.03 60.98 C50.21 39.63, 71.56 19.9, 83.4 -0.68 M34.06 58.56 C51.69 39.16, 71.09 17.94, 86 -0.13 M44.25 60.2 C58.99 41.79, 74.61 26.39, 93.68 -0.41 M43.67 58.37 C56.1 45.07, 67.58 31.85, 96.25 -0.19 M54.68 60.12 C73.5 34.42, 93.28 10.42, 106.39 -0.56 M55.33 59.22 C73.16 38.65, 92.63 15.88, 106.53 0.01 M63.53 58.93 C84.15 36.19, 102.76 14.46, 114.83 1.34 M65.63 58.39 C82.29 39.88, 98.63 21.34, 116.2 0.69 M75.18 60.69 C87.44 43.15, 99.06 31.96, 128.76 -0.92 M75.51 60.02 C91.08 41.24, 107.36 24.93, 127.75 -0.66 M88 59.49 C104.52 40.61, 121.01 20.03, 133.98 4.16 M87.32 59.59 C95.96 47.93, 106.36 35.54, 133.72 4.45 M97.15 57.68 C110.07 47.46, 119.79 31.24, 134.41 16.06 M96.93 59.28 C109.94 44.35, 123.12 30.14, 135 15.89 M107.4 57.99 C112.84 50.77, 119.74 45.89, 134.05 27.49 M106.84 58.38 C116.65 50.12, 125.52 39.41, 134.1 27.46 M119.97 57.8 C123.26 50.66, 129.01 46.61, 135.42 41.78 M118.26 58.71 C123.03 54.12, 128.51 46.91, 133.85 40.46 M129.04 58.32 C129.79 57.48, 132.24 55.67, 133.64 52.4 M128.6 59.03 C130.82 56.87, 132.6 54.67, 134.12 53.21" stroke="#82c91e" stroke-width="1" fill="none"></path><path d="M1.5 1.6 C43.83 -2.96, 82.46 -2.91, 129.86 0.75 M-0.28 0.98 C44.25 -0.41, 86.85 0.11, 130.57 0.52 M129.42 -0.3 C130.72 13.02, 130.27 28.59, 131.17 58.12 M129.24 -0.23 C129.19 12.92, 130.41 26.94, 129.75 57.45 M129.89 56.55 C89.66 58.46, 52.87 58.43, 1.59 58.8 M130.71 57.56 C81.15 58.59, 30.53 58.53, -0.38 57.91 M-0.61 59.1 C-0.08 40.29, 0.23 22.49, 0.63 0.62 M0.03 56.88 C-0.97 44.87, -0.37 34.06, -0.64 0.38" stroke="#000" stroke-width="2" fill="none"></path></g><g transform="translate(168.265625 118.015625) rotate(0 60 11.5)"><text x="60" y="17" font-family="Virgil, Segoe UI Emoji" font-size="20px" fill="#000" text-anchor="middle" style="white-space: pre;" direction="ltr">App</text></g><g stroke-linecap="round"><g transform="translate(226.70534427468647 161.28515625) rotate(0 -0.7598346316472657 13.058345728078848)"><path d="M-0.06 0.58 C-0.22 4.88, 0.27 22.01, 0.06 26.28 M-1.55 -0.16 C-1.91 3.75, -1.03 20.46, -0.58 24.51" stroke="#000" stroke-width="1" fill="none"></path></g><g transform="translate(226.70534427468647 161.28515625) rotate(0 -0.7598346316472657 13.058345728078848)"><path d="M-2.47 23.61 L-8.05 13.35 L4.43 13.06 L-0.57 23.84" stroke="none" stroke-width="0" fill="#000" fill-rule="evenodd"></path><path d="M0.04 25.14 C-2.31 19.36, -4.84 16.01, -5.71 14.2 M-0.84 25.1 C-2.21 20.57, -4.12 17.97, -7.31 12.96 M-7.01 12.62 C-4.57 13, -1.8 13.26, 3.53 12.26 M-6.86 13.85 C-3.45 12.93, 0.72 12.46, 4.19 12.51 M5.07 12.8 C1.32 16.8, 1.96 19.78, -0.78 24.75 M3.38 12.12 C3.24 15.27, 2.43 17.69, -0.93 24.19 M-0.58 24.51 C-0.58 24.51, -0.58 24.51, -0.58 24.51 M-0.58 24.51 C-0.58 24.51, -0.58 24.51, -0.58 24.51" stroke="#000" stroke-width="1" fill="none"></path></g></g><g stroke-linecap="round"><g transform="translate(228.7256902668944 246.9375) rotate(0 1.0621907497842926 16.696325771398875)"><path d="M1.05 0.24 C0.9 5.53, -0.17 27.31, -0.01 32.51 M0.14 -0.68 C0.27 4.76, 1.87 28.6, 2.15 34.08" stroke="#000" stroke-width="1" fill="none"></path></g><g transform="translate(228.7256902668944 246.9375) rotate(0 1.0621907497842926 16.696325771398875)"><path d="M3.96 32.39 L-4.85 21.38 L8.89 18.82 L2.52 32.21" stroke="none" stroke-width="0" fill="#000" fill-rule="evenodd"></path><path d="M2.44 32.74 C-0.54 30.44, -4.6 23.99, -4.72 19.64 M1.65 34.34 C-0.32 29.98, -2.96 24.61, -5.37 20.24 M-3.97 20.19 C-2.16 21.23, 1.43 20.39, 7.77 20.64 M-5.58 20.82 C-0.93 20.26, 3.94 20.32, 7.48 19.53 M8.03 20.52 C6.18 23.18, 5.75 26.51, 1.24 33.98 M7 19.71 C6.2 22.68, 4.76 26.1, 2.41 33.73 M2.15 34.08 C2.15 34.08, 2.15 34.08, 2.15 34.08 M2.15 34.08 C2.15 34.08, 2.15 34.08, 2.15 34.08" stroke="#000" stroke-width="1" fill="none"></path></g></g><g stroke-linecap="round" transform="translate(379.9609375 10) rotate(0 103.791015625 85.57421875)"><path d="M13.85 42.51 C13.85 42.51, 13.85 42.51, 13.85 42.51 M13.85 42.51 C13.85 42.51, 13.85 42.51, 13.85 42.51 M1.99 67.27 C14.81 56.57, 23.82 43.62, 42.68 20.51 M4.46 67.07 C18.09 49.41, 33.68 32.54, 44.34 19.55 M5.71 78.11 C20.17 59.31, 32.27 46.5, 58.62 15.38 M5.79 77.94 C18.03 62.57, 28.76 50.67, 60.17 13.07 M4.67 89.57 C24.97 63.53, 48.9 40.23, 78.18 2.06 M5.51 88.23 C22.38 71.05, 38.17 52.96, 78.22 3.25 M5.85 100.38 C28.05 73.86, 49.21 49.63, 89.92 4.56 M7.84 98.32 C24.63 78.6, 42.86 59.78, 90.7 3.86 M8.51 110.48 C34.59 81.36, 59.33 49.62, 103 0.45 M7.42 110.15 C42.66 69.1, 78.23 28.95, 101.59 1.54 M12.68 118.95 C45.07 82.63, 77.19 47.47, 114.28 1.77 M10.85 118.14 C30.68 96.05, 52.43 72.06, 112.68 1.78 M16.79 124.87 C52.28 85.91, 86.09 43.91, 124.21 2.29 M15.24 125.07 C54.67 84.03, 90.7 41.32, 122.54 3.12 M20.74 134.23 C54.33 95.44, 89.52 53.34, 132.08 5.4 M20.37 133.94 C58.4 88.44, 98.08 44.38, 130.72 6.1 M24.68 141.7 C56.97 104.08, 87.82 64.41, 137.42 7.49 M24.39 140.81 C58.71 102.51, 93.15 61.64, 138.18 7.55 M30.3 145.4 C60.59 110.33, 91.74 72.01, 148.66 8.85 M30.18 146.51 C54.28 118.01, 77.45 90.73, 146.92 10.57 M37.56 150.38 C81.67 99.36, 122.83 49.69, 158.47 10.71 M37 149.15 C64.18 119.04, 91.18 88.11, 156.35 12.58 M43.29 153.89 C90.31 98.62, 138.15 47.6, 163.77 15.53 M42.2 154.39 C69.09 127.66, 92.75 99.37, 164.3 16.5 M50.54 159.59 C86.11 115.64, 123.23 75.65, 168.35 23.16 M49.46 160.64 C94.92 108.86, 140.25 55.75, 170.58 22.04 M57.96 164.87 C104.1 110.86, 150.55 54.33, 174.86 27.64 M57.22 163.38 C83.38 131.7, 112.16 98.99, 176.05 25.43 M66.35 165.51 C93.35 135.15, 119.49 103.03, 180.91 29.47 M64.24 166.82 C96.69 132.01, 126.7 96.86, 181.69 30.69 M74.18 169.26 C116.56 120.26, 158.86 68.59, 190.29 35.57 M74.08 168.5 C99.72 139.76, 124.92 109.86, 188.8 36.63 M80.75 171.8 C106.71 144.06, 131.51 116.35, 191.75 41.58 M81.35 172.23 C108.42 140.21, 135.24 110.96, 192.81 44.09 M90.24 172.48 C130.03 131.26, 166.98 88.67, 196.19 49.03 M92.62 172.81 C127.73 132.91, 161.66 91.06, 197.44 50.16 M103.09 171.87 C129.43 145.32, 151.55 117.59, 203.45 56.16 M102.91 172.63 C134.15 135.89, 163.33 103.37, 202.53 58.01 M112.65 170.7 C145.28 136.74, 171.61 103.76, 206.93 64.41 M113.33 171.58 C133.02 147.35, 153.52 125.23, 205.59 64.3 M125.17 169.65 C148.7 145.29, 170.66 118.11, 204.97 75.9 M125.99 169.84 C149.04 140.59, 175.2 112.97, 206.29 77.77 M133.79 171.87 C150.01 155.55, 166.2 135.5, 207.36 89.18 M135.1 171.38 C157.37 145.14, 180.36 117.31, 205.87 89.88 M151.72 167.58 C163.55 151.77, 179.25 135.27, 206.84 101.22 M151.06 165.64 C171.21 142.21, 193.45 117.81, 207.67 99.9 M167.94 158.3 C177.91 146.8, 188.58 136.7, 199.23 120.77 M169.22 156.64 C175.22 149.58, 181.92 141.62, 200.27 121.19 M19.97 137.07 C19.97 137.07, 19.97 137.07, 19.97 137.07 M19.97 137.07 C19.97 137.07, 19.97 137.07, 19.97 137.07 M55.21 156.49 C44.17 144.92, 33.4 136.44, 8.72 119.23 M53.31 155.49 C42.66 147.28, 30.63 136.91, 9.74 116.66 M70.48 160.84 C52.52 144.22, 34.26 125.8, 6.95 104.86 M72.97 160.98 C53.77 143.81, 34.55 126.43, 7.05 105.51 M93.56 167.62 C56.31 139.38, 23.93 110.72, 4.23 93.43 M91.34 168.2 C69.51 149.52, 46.01 129.4, 5.93 93.01 M101.37 168.48 C65.05 136.04, 30.11 102.62, 3.34 82.05 M102.49 167.06 C80.14 146.79, 59.73 126.95, 5.73 81.6 M114.48 166.26 C80.03 135.84, 46.35 109.61, 5.88 68.63 M113.3 165.97 C78.17 134.86, 41.15 103.95, 4.73 70.88 M124.77 166 C91.23 134.35, 57.54 105.34, 7.55 62.42 M126.09 165.93 C87.81 133.99, 50.51 101.09, 6.51 63.13 M135.37 162.23 C103.37 134.89, 72.32 109.21, 8.8 56.24 M133.61 162.75 C87.14 120.29, 39.01 78.82, 11.52 54.54 M140.79 158.19 C100.76 123.69, 56.11 84.98, 13.17 47.64 M142.12 159.27 C99.97 122.07, 58.85 86.71, 14.48 47.38 M152.3 155.89 C114.17 124.97, 77.7 92.18, 18.01 37.57 M151.84 156.5 C121.94 132.91, 95.19 108.92, 16.07 39.67 M160.78 150.81 C120.56 119.2, 82.42 84.7, 24.5 32.4 M160.7 153.2 C124.99 120.71, 88.83 90.64, 21.96 34.18 M169.89 149.17 C122.28 105.83, 70.31 65.2, 27.36 26.69 M170.6 150.26 C138.76 125.13, 110.27 97.73, 29.51 28.21 M174.32 146.72 C132.57 105.77, 87.51 66.19, 33.88 21.04 M176.65 144.44 C125.73 100.28, 72.47 54.34, 33.8 22.47 M182.65 141.85 C151.65 114.34, 118.39 85.37, 38.92 17.52 M180.95 140.46 C139.18 102.81, 97.61 66.5, 41.63 17.45 M187.22 135.13 C138.36 93.99, 90.39 48.9, 46.12 12.95 M187.55 133.57 C136.28 90.36, 85.61 47.37, 45.8 11.76 M193.96 130.53 C142.5 85.47, 94.4 41.92, 56.01 10.21 M193.24 129.78 C139.89 83.71, 86.68 38, 54.05 8.39 M197.31 122.86 C169.19 96.63, 141.04 70.54, 61.59 3.71 M197.49 120.28 C143.85 76.46, 93.7 31.47, 63.84 5.24 M199.35 111.61 C172.12 91.32, 145.43 67.29, 73.47 2.58 M200.53 112.27 C167.8 86.32, 137.59 59.26, 72.35 3.24 M202.68 107.09 C161.31 70.07, 120.6 32.78, 81.57 1.4 M203.3 106.12 C173.68 78.82, 144.22 53.61, 81.23 0.12 M208.21 99.69 C167.64 63.22, 129.19 30.69, 94.38 -1.19 M206.2 97.62 C170.56 67.05, 133.93 35.87, 92.86 -1.97 M206.39 87.99 C179.18 60.56, 149.35 39.09, 105.43 -3.04 M205.32 87.11 C165.99 50.3, 124.73 16.52, 103.83 -2.05 M203.8 75.2 C177.82 50.12, 148.85 24.52, 114.06 -2.6 M206.03 74.9 C180.8 54.31, 156.15 32.02, 114.67 -3.36 M204.53 64.73 C179.2 43.07, 151.52 18.17, 122.94 -4.84 M205.39 65.81 C178.68 39.91, 149.75 16.11, 124.42 -6.37 M211.53 59.99 C185.05 36.95, 158.89 15.15, 144.61 -0.84 M210.44 58.05 C193.22 43.99, 177.26 29.85, 142.14 0.73" stroke="#fab005" stroke-width="1" fill="none"></path><path d="M119.21 0.44 C132.01 0.57, 145.8 5.92, 157 11.53 C168.19 17.13, 178.34 25.34, 186.38 34.07 C194.43 42.81, 202.03 53.29, 205.25 63.94 C208.47 74.6, 207.67 87.02, 205.7 98.01 C203.74 109.01, 199.92 120.62, 193.44 129.89 C186.96 139.17, 177.47 147.38, 166.83 153.68 C156.19 159.99, 142.54 164.97, 129.6 167.71 C116.66 170.44, 102.3 171.36, 89.19 170.09 C76.08 168.83, 62.45 165.59, 50.94 160.11 C39.43 154.63, 27.94 145.94, 20.14 137.21 C12.33 128.49, 7.37 118.38, 4.11 107.77 C0.85 97.17, -1.11 84.52, 0.57 73.59 C2.24 62.65, 7.35 51.6, 14.16 42.15 C20.97 32.71, 30.77 23.36, 41.44 16.93 C52.11 10.5, 63.41 6.03, 78.16 3.57 C92.92 1.1, 119.69 1.74, 129.97 2.15 C140.25 2.57, 140.44 4.43, 139.83 6.06 M147.97 9.4 C160.1 12.89, 173.16 20.88, 182.29 29.15 C191.43 37.41, 198.37 48.5, 202.79 59.02 C207.2 69.53, 209.87 81.52, 208.76 92.22 C207.65 102.93, 201.92 113.6, 196.14 123.25 C190.36 132.9, 184.06 142.72, 174.07 150.11 C164.08 157.51, 148.95 164.4, 136.2 167.63 C123.45 170.86, 110.38 170.41, 97.58 169.52 C84.79 168.63, 71.08 166.74, 59.4 162.3 C47.73 157.87, 36.24 150.79, 27.52 142.9 C18.79 135, 11.61 125.28, 7.06 114.93 C2.5 104.57, -0.32 91.85, 0.19 80.75 C0.7 69.64, 4.57 57.95, 10.12 48.29 C15.67 38.64, 23.33 30.09, 33.5 22.8 C43.67 15.5, 58.54 8.55, 71.13 4.54 C83.72 0.53, 96.27 -1.78, 109.06 -1.26 C121.85 -0.73, 141.38 5.74, 147.86 7.68 C154.35 9.63, 148.67 8.95, 147.95 10.4" stroke="#000" stroke-width="2" fill="none"></path></g></svg>